<?xml version="1.0" standalone="no"?><!DOCTYPE svg PUBLIC "-//W3C//DTD SVG 1.1//EN" "http://www.w3.org/Graphics/SVG/1.1/DTD/svg11.dtd"><svg t="1594869044191" class="icon" viewBox="0 0 1024 1024" version="1.1" xmlns="http://www.w3.org/2000/svg" p-id="6685" xmlns:xlink="http://www.w3.org/1999/xlink" width="128" height="128"><defs><style type="text/css"></style></defs><path d="M549.957702 353.928704q-3.37763 5.057414-9.031097 15.190305a513.23726 513.23726 0 0 0 64.698781 61.321151 453.758453 453.758453 0 0 0 61.881079-76.511456z" p-id="6686" fill="#8a8a8a"></path><path d="M511.990969 0C229.227312 0 0 229.227312 0 511.990969s229.227312 512.009031 511.990969 512.009031 511.972907-229.227312 511.972907-512.009031S794.772688 0 511.990969 0zM270.391054 415.249854a1046.090064 1046.090064 0 0 0 69.196267-164.817525l49.490413 19.145926q-39.375584 100.136807-78.751168 161.439895 28.122837-3.37763 56.245674-8.435045l32.620323-70.316123 46.781085 17.411955q-69.196268 143.44995-112.509411 203.633183a696.92978 696.92978 0 0 0 83.248655-27.562909v47.810629q-79.311097 29.820683-144.497557 39.375584l-14.070449-48.370557a94.411091 94.411091 0 0 0 23.46279-15.154181q24.185279-28.122837 61.321151-98.438961l-81.568871 12.372603-12.932531-48.370557q12.950594-5.111601 21.963629-19.723917z m169.87494 290.259468a1138.207257 1138.207257 0 0 1-177.768119 47.810629l-7.875117-56.245674q103.496375-16.255975 185.643236-46.130845z m265.514261 68.058349a1477.776516 1477.776516 0 0 0-248.644171-85.506429l30.380611-44.432999q137.814545 35.997954 246.386397 85.50643z m-178.328047-178.815726l28.122837-41.055369a961.468682 961.468682 0 0 1 157.502337 59.063377l-26.443053 40.49544a925.97647 925.97647 0 0 0-159.164059-58.557635zM747.395551 576.184009a700.14485 700.14485 0 0 1-137.272679-79.871025q-69.160143 56.841726-158.604131 87.132027l-26.443053-47.250701q83.248655-25.865063 144.009878-73.693754a704.660399 704.660399 0 0 1-55.685746-55.125818 505.74145 505.74145 0 0 1-41.543048 43.349267l-33.83049-43.873071q71.995908-64.680719 96.759177-155.822553l54.005961 6.755261q-8.435045 29.260755-14.630377 45.010989h154.702697v43.349267q-34.31817 66.956555-81.008943 115.327113 55.685746 37.11781 127.699716 66.378565z" p-id="6687" fill="#8a8a8a"></path></svg>