<?xml version="1.0" standalone="no"?><!DOCTYPE svg PUBLIC "-//W3C//DTD SVG 1.1//EN" "http://www.w3.org/Graphics/SVG/1.1/DTD/svg11.dtd"><svg t="1594869172488" class="icon" viewBox="0 0 1024 1024" version="1.1" xmlns="http://www.w3.org/2000/svg" p-id="11022" xmlns:xlink="http://www.w3.org/1999/xlink" width="128" height="128"><defs><style type="text/css"></style></defs><path d="M781.03083 330.4c0 55.1-12.7 106-42.4 148.5-12.7 21.2-25.5 42.4-38.2 59.4 114.5 59.4 195.1 156.9 220.6 305.4H976.13083c29.7 0 50.9-25.4 46.7-55.1-21.2-123-106-216.3-220.6-241.8 12.7-4.2 25.5-17 33.9-25.5 17-12.7 33.9-33.9 46.7-55.1 17-25.5 25.5-63.6 25.5-97.6 0-93.3-72.1-173.9-165.4-178.2 21.1 42.4 38.1 89.1 38.1 140z m-538.7 0c0 55.1 12.7 106 42.4 148.5 12.7 21.2 25.5 42.4 38.2 59.4-114.5 59.4-195.1 156.9-220.6 305.4H47.23083c-29.7 0-50.9-25.4-46.7-55.1 21.2-123 106-216.3 220.6-241.8-12.7-4.2-25.5-17-33.9-25.5-21.2-12.7-33.9-33.9-46.7-55.1-17-25.5-29.7-59.4-29.7-93.3 0-93.3 72.1-173.9 165.4-178.2-21.2 38.1-33.9 84.8-33.9 135.7z m0 0" p-id="11023"></path><path d="M598.63083 555.2c17-4.2 29.7-17 42.4-29.7 25.4-17 46.7-42.4 59.4-67.9 38.2-59.4 46.7-140 17-216.3-29.7-72.1-97.6-123-173.9-135.7-135.7-17-254.5 89.1-254.5 224.8 0 93.3 59.4 186.6 140 216.3-148.5 33.9-263 165.4-284.2 318.1-4.2 29.7 17 55.1 46.7 55.1h640.5c29.7 0 50.9-25.4 46.7-55.1-21.3-144.2-135.9-275.7-280.1-309.6z m0 0" p-id="11024"></path></svg>